<?xml version="1.0" encoding="utf-8"?>
<!-- Generator: Adobe Illustrator 27.4.0, SVG Export Plug-In . SVG Version: 6.00 Build 0)  -->
<svg version="1.1" id="Layer_1" xmlns="http://www.w3.org/2000/svg" xmlns:xlink="http://www.w3.org/1999/xlink" x="0px" y="0px"
	 viewBox="0 0 300 300" style="enable-background:new 0 0 300 300;" xml:space="preserve">
<style type="text/css">
	.st0{fill:#FFFFFF;}
	.st1{stroke:#000000;stroke-width:0.2;}
</style>
<g id="qrcode:guziordo.github.io_x2F_">
	<rect class="st0" width="300" height="300"/>
	<rect x="29" y="29" class="st1" width="9.7" height="9.7"/>
	<rect x="29" y="38.7" class="st1" width="9.7" height="9.7"/>
	<rect x="29" y="48.4" class="st1" width="9.7" height="9.7"/>
	<rect x="29" y="58.1" class="st1" width="9.7" height="9.7"/>
	<rect x="29" y="67.7" class="st1" width="9.7" height="9.7"/>
	<rect x="29" y="77.4" class="st1" width="9.7" height="9.7"/>
	<rect x="29" y="87.1" class="st1" width="9.7" height="9.7"/>
	<rect x="29" y="106.4" class="st1" width="9.7" height="9.7"/>
	<rect x="29" y="116.1" class="st1" width="9.7" height="9.7"/>
	<rect x="29" y="125.8" class="st1" width="9.7" height="9.7"/>
	<rect x="29" y="135.5" class="st1" width="9.7" height="9.7"/>
	<rect x="29" y="174.2" class="st1" width="9.7" height="9.7"/>
	<rect x="29" y="203.2" class="st1" width="9.7" height="9.7"/>
	<rect x="29" y="212.9" class="st1" width="9.7" height="9.7"/>
	<rect x="29" y="222.6" class="st1" width="9.7" height="9.7"/>
	<rect x="29" y="232.3" class="st1" width="9.7" height="9.7"/>
	<rect x="29" y="241.9" class="st1" width="9.7" height="9.7"/>
	<rect x="29" y="251.6" class="st1" width="9.7" height="9.7"/>
	<rect x="29" y="261.3" class="st1" width="9.7" height="9.7"/>
	<rect x="38.7" y="29" class="st1" width="9.7" height="9.7"/>
	<rect x="38.7" y="87.1" class="st1" width="9.7" height="9.7"/>
	<rect x="38.7" y="106.4" class="st1" width="9.7" height="9.7"/>
	<rect x="38.7" y="125.8" class="st1" width="9.7" height="9.7"/>
	<rect x="38.7" y="154.8" class="st1" width="9.7" height="9.7"/>
	<rect x="38.7" y="164.5" class="st1" width="9.7" height="9.7"/>
	<rect x="38.7" y="203.2" class="st1" width="9.7" height="9.7"/>
	<rect x="38.7" y="261.3" class="st1" width="9.7" height="9.7"/>
	<rect x="48.4" y="29" class="st1" width="9.7" height="9.7"/>
	<rect x="48.4" y="48.4" class="st1" width="9.7" height="9.7"/>
	<rect x="48.4" y="58.1" class="st1" width="9.7" height="9.7"/>
	<rect x="48.4" y="67.7" class="st1" width="9.7" height="9.7"/>
	<rect x="48.4" y="87.1" class="st1" width="9.7" height="9.7"/>
	<rect x="48.4" y="106.4" class="st1" width="9.7" height="9.7"/>
	<rect x="48.4" y="135.5" class="st1" width="9.7" height="9.7"/>
	<rect x="48.4" y="164.5" class="st1" width="9.7" height="9.7"/>
	<rect x="48.4" y="183.9" class="st1" width="9.7" height="9.7"/>
	<rect x="48.4" y="203.2" class="st1" width="9.7" height="9.7"/>
	<rect x="48.4" y="222.6" class="st1" width="9.7" height="9.7"/>
	<rect x="48.4" y="232.3" class="st1" width="9.7" height="9.7"/>
	<rect x="48.4" y="241.9" class="st1" width="9.7" height="9.7"/>
	<rect x="48.4" y="261.3" class="st1" width="9.7" height="9.7"/>
	<rect x="58.1" y="29" class="st1" width="9.7" height="9.7"/>
	<rect x="58.1" y="48.4" class="st1" width="9.7" height="9.7"/>
	<rect x="58.1" y="58.1" class="st1" width="9.7" height="9.7"/>
	<rect x="58.1" y="67.7" class="st1" width="9.7" height="9.7"/>
	<rect x="58.1" y="87.1" class="st1" width="9.7" height="9.7"/>
	<rect x="58.1" y="106.4" class="st1" width="9.7" height="9.7"/>
	<rect x="58.1" y="116.1" class="st1" width="9.7" height="9.7"/>
	<rect x="58.1" y="164.5" class="st1" width="9.7" height="9.7"/>
	<rect x="58.1" y="174.2" class="st1" width="9.7" height="9.7"/>
	<rect x="58.1" y="183.9" class="st1" width="9.7" height="9.7"/>
	<rect x="58.1" y="203.2" class="st1" width="9.7" height="9.7"/>
	<rect x="58.1" y="222.6" class="st1" width="9.7" height="9.7"/>
	<rect x="58.1" y="232.3" class="st1" width="9.7" height="9.7"/>
	<rect x="58.1" y="241.9" class="st1" width="9.7" height="9.7"/>
	<rect x="58.1" y="261.3" class="st1" width="9.7" height="9.7"/>
	<rect x="67.7" y="29" class="st1" width="9.7" height="9.7"/>
	<rect x="67.7" y="48.4" class="st1" width="9.7" height="9.7"/>
	<rect x="67.7" y="58.1" class="st1" width="9.7" height="9.7"/>
	<rect x="67.7" y="67.7" class="st1" width="9.7" height="9.7"/>
	<rect x="67.7" y="87.1" class="st1" width="9.7" height="9.7"/>
	<rect x="67.7" y="116.1" class="st1" width="9.7" height="9.7"/>
	<rect x="67.7" y="125.8" class="st1" width="9.7" height="9.7"/>
	<rect x="67.7" y="135.5" class="st1" width="9.7" height="9.7"/>
	<rect x="67.7" y="145.2" class="st1" width="9.7" height="9.7"/>
	<rect x="67.7" y="154.8" class="st1" width="9.7" height="9.7"/>
	<rect x="67.7" y="183.9" class="st1" width="9.7" height="9.7"/>
	<rect x="67.7" y="203.2" class="st1" width="9.7" height="9.7"/>
	<rect x="67.7" y="222.6" class="st1" width="9.7" height="9.7"/>
	<rect x="67.7" y="232.3" class="st1" width="9.7" height="9.7"/>
	<rect x="67.7" y="241.9" class="st1" width="9.7" height="9.7"/>
	<rect x="67.7" y="261.3" class="st1" width="9.7" height="9.7"/>
	<rect x="77.4" y="29" class="st1" width="9.7" height="9.7"/>
	<rect x="77.4" y="87.1" class="st1" width="9.7" height="9.7"/>
	<rect x="77.4" y="116.1" class="st1" width="9.7" height="9.7"/>
	<rect x="77.4" y="125.8" class="st1" width="9.7" height="9.7"/>
	<rect x="77.4" y="135.5" class="st1" width="9.7" height="9.7"/>
	<rect x="77.4" y="145.2" class="st1" width="9.7" height="9.7"/>
	<rect x="77.4" y="164.5" class="st1" width="9.7" height="9.7"/>
	<rect x="77.4" y="174.2" class="st1" width="9.7" height="9.7"/>
	<rect x="77.4" y="203.2" class="st1" width="9.7" height="9.7"/>
	<rect x="77.4" y="261.3" class="st1" width="9.7" height="9.7"/>
	<rect x="87.1" y="29" class="st1" width="9.7" height="9.7"/>
	<rect x="87.1" y="38.7" class="st1" width="9.7" height="9.7"/>
	<rect x="87.1" y="48.4" class="st1" width="9.7" height="9.7"/>
	<rect x="87.1" y="58.1" class="st1" width="9.7" height="9.7"/>
	<rect x="87.1" y="67.7" class="st1" width="9.7" height="9.7"/>
	<rect x="87.1" y="77.4" class="st1" width="9.7" height="9.7"/>
	<rect x="87.1" y="87.1" class="st1" width="9.7" height="9.7"/>
	<rect x="87.1" y="106.4" class="st1" width="9.7" height="9.7"/>
	<rect x="87.1" y="125.8" class="st1" width="9.7" height="9.7"/>
	<rect x="87.1" y="145.2" class="st1" width="9.7" height="9.7"/>
	<rect x="87.1" y="164.5" class="st1" width="9.7" height="9.7"/>
	<rect x="87.1" y="183.9" class="st1" width="9.7" height="9.7"/>
	<rect x="87.1" y="203.2" class="st1" width="9.7" height="9.7"/>
	<rect x="87.1" y="212.9" class="st1" width="9.7" height="9.7"/>
	<rect x="87.1" y="222.6" class="st1" width="9.7" height="9.7"/>
	<rect x="87.1" y="232.3" class="st1" width="9.7" height="9.7"/>
	<rect x="87.1" y="241.9" class="st1" width="9.7" height="9.7"/>
	<rect x="87.1" y="251.6" class="st1" width="9.7" height="9.7"/>
	<rect x="87.1" y="261.3" class="st1" width="9.7" height="9.7"/>
	<rect x="96.8" y="135.5" class="st1" width="9.7" height="9.7"/>
	<rect x="96.8" y="164.5" class="st1" width="9.7" height="9.7"/>
	<rect x="96.8" y="183.9" class="st1" width="9.7" height="9.7"/>
	<rect x="106.4" y="29" class="st1" width="9.7" height="9.7"/>
	<rect x="106.4" y="48.4" class="st1" width="9.7" height="9.7"/>
	<rect x="106.4" y="58.1" class="st1" width="9.7" height="9.7"/>
	<rect x="106.4" y="67.7" class="st1" width="9.7" height="9.7"/>
	<rect x="106.4" y="87.1" class="st1" width="9.7" height="9.7"/>
	<rect x="106.4" y="106.4" class="st1" width="9.7" height="9.7"/>
	<rect x="106.4" y="116.1" class="st1" width="9.7" height="9.7"/>
	<rect x="106.4" y="125.8" class="st1" width="9.7" height="9.7"/>
	<rect x="106.4" y="145.2" class="st1" width="9.7" height="9.7"/>
	<rect x="106.4" y="154.8" class="st1" width="9.7" height="9.7"/>
	<rect x="106.4" y="164.5" class="st1" width="9.7" height="9.7"/>
	<rect x="106.4" y="174.2" class="st1" width="9.7" height="9.7"/>
	<rect x="106.4" y="183.9" class="st1" width="9.7" height="9.7"/>
	<rect x="106.4" y="193.6" class="st1" width="9.7" height="9.7"/>
	<rect x="106.4" y="232.3" class="st1" width="9.7" height="9.7"/>
	<rect x="106.4" y="241.9" class="st1" width="9.7" height="9.7"/>
	<rect x="106.4" y="251.6" class="st1" width="9.7" height="9.7"/>
	<rect x="106.4" y="261.3" class="st1" width="9.7" height="9.7"/>
	<rect x="116.1" y="38.7" class="st1" width="9.7" height="9.7"/>
	<rect x="116.1" y="48.4" class="st1" width="9.7" height="9.7"/>
	<rect x="116.1" y="58.1" class="st1" width="9.7" height="9.7"/>
	<rect x="116.1" y="125.8" class="st1" width="9.7" height="9.7"/>
	<rect x="116.1" y="135.5" class="st1" width="9.7" height="9.7"/>
	<rect x="116.1" y="145.2" class="st1" width="9.7" height="9.7"/>
	<rect x="116.1" y="154.8" class="st1" width="9.7" height="9.7"/>
	<rect x="116.1" y="193.6" class="st1" width="9.7" height="9.7"/>
	<rect x="116.1" y="203.2" class="st1" width="9.7" height="9.7"/>
	<rect x="116.1" y="212.9" class="st1" width="9.7" height="9.7"/>
	<rect x="116.1" y="241.9" class="st1" width="9.7" height="9.7"/>
	<rect x="125.8" y="29" class="st1" width="9.7" height="9.7"/>
	<rect x="125.8" y="38.7" class="st1" width="9.7" height="9.7"/>
	<rect x="125.8" y="48.4" class="st1" width="9.7" height="9.7"/>
	<rect x="125.8" y="58.1" class="st1" width="9.7" height="9.7"/>
	<rect x="125.8" y="77.4" class="st1" width="9.7" height="9.7"/>
	<rect x="125.8" y="87.1" class="st1" width="9.7" height="9.7"/>
	<rect x="125.8" y="96.8" class="st1" width="9.7" height="9.7"/>
	<rect x="125.8" y="106.4" class="st1" width="9.7" height="9.7"/>
	<rect x="125.8" y="116.1" class="st1" width="9.7" height="9.7"/>
	<rect x="125.8" y="125.8" class="st1" width="9.7" height="9.7"/>
	<rect x="125.8" y="135.5" class="st1" width="9.7" height="9.7"/>
	<rect x="125.8" y="145.2" class="st1" width="9.7" height="9.7"/>
	<rect x="125.8" y="164.5" class="st1" width="9.7" height="9.7"/>
	<rect x="125.8" y="174.2" class="st1" width="9.7" height="9.7"/>
	<rect x="125.8" y="183.9" class="st1" width="9.7" height="9.7"/>
	<rect x="125.8" y="212.9" class="st1" width="9.7" height="9.7"/>
	<rect x="125.8" y="222.6" class="st1" width="9.7" height="9.7"/>
	<rect x="125.8" y="232.3" class="st1" width="9.7" height="9.7"/>
	<rect x="125.8" y="241.9" class="st1" width="9.7" height="9.7"/>
	<rect x="125.8" y="261.3" class="st1" width="9.7" height="9.7"/>
	<rect x="135.5" y="38.7" class="st1" width="9.7" height="9.7"/>
	<rect x="135.5" y="67.7" class="st1" width="9.7" height="9.7"/>
	<rect x="135.5" y="77.4" class="st1" width="9.7" height="9.7"/>
	<rect x="135.5" y="106.4" class="st1" width="9.7" height="9.7"/>
	<rect x="135.5" y="125.8" class="st1" width="9.7" height="9.7"/>
	<rect x="135.5" y="154.8" class="st1" width="9.7" height="9.7"/>
	<rect x="135.5" y="164.5" class="st1" width="9.7" height="9.7"/>
	<rect x="135.5" y="174.2" class="st1" width="9.7" height="9.7"/>
	<rect x="135.5" y="212.9" class="st1" width="9.7" height="9.7"/>
	<rect x="135.5" y="251.6" class="st1" width="9.7" height="9.7"/>
	<rect x="135.5" y="261.3" class="st1" width="9.7" height="9.7"/>
	<rect x="145.2" y="29" class="st1" width="9.7" height="9.7"/>
	<rect x="145.2" y="38.7" class="st1" width="9.7" height="9.7"/>
	<rect x="145.2" y="58.1" class="st1" width="9.7" height="9.7"/>
	<rect x="145.2" y="67.7" class="st1" width="9.7" height="9.7"/>
	<rect x="145.2" y="87.1" class="st1" width="9.7" height="9.7"/>
	<rect x="145.2" y="96.8" class="st1" width="9.7" height="9.7"/>
	<rect x="145.2" y="106.4" class="st1" width="9.7" height="9.7"/>
	<rect x="145.2" y="116.1" class="st1" width="9.7" height="9.7"/>
	<rect x="145.2" y="125.8" class="st1" width="9.7" height="9.7"/>
	<rect x="145.2" y="145.2" class="st1" width="9.7" height="9.7"/>
	<rect x="145.2" y="154.8" class="st1" width="9.7" height="9.7"/>
	<rect x="145.2" y="183.9" class="st1" width="9.7" height="9.7"/>
	<rect x="145.2" y="251.6" class="st1" width="9.7" height="9.7"/>
	<rect x="154.8" y="29" class="st1" width="9.7" height="9.7"/>
	<rect x="154.8" y="38.7" class="st1" width="9.7" height="9.7"/>
	<rect x="154.8" y="48.4" class="st1" width="9.7" height="9.7"/>
	<rect x="154.8" y="58.1" class="st1" width="9.7" height="9.7"/>
	<rect x="154.8" y="67.7" class="st1" width="9.7" height="9.7"/>
	<rect x="154.8" y="106.4" class="st1" width="9.7" height="9.7"/>
	<rect x="154.8" y="116.1" class="st1" width="9.7" height="9.7"/>
	<rect x="154.8" y="125.8" class="st1" width="9.7" height="9.7"/>
	<rect x="154.8" y="164.5" class="st1" width="9.7" height="9.7"/>
	<rect x="154.8" y="203.2" class="st1" width="9.7" height="9.7"/>
	<rect x="154.8" y="212.9" class="st1" width="9.7" height="9.7"/>
	<rect x="154.8" y="222.6" class="st1" width="9.7" height="9.7"/>
	<rect x="154.8" y="251.6" class="st1" width="9.7" height="9.7"/>
	<rect x="164.5" y="48.4" class="st1" width="9.7" height="9.7"/>
	<rect x="164.5" y="67.7" class="st1" width="9.7" height="9.7"/>
	<rect x="164.5" y="77.4" class="st1" width="9.7" height="9.7"/>
	<rect x="164.5" y="87.1" class="st1" width="9.7" height="9.7"/>
	<rect x="164.5" y="145.2" class="st1" width="9.7" height="9.7"/>
	<rect x="164.5" y="154.8" class="st1" width="9.7" height="9.7"/>
	<rect x="164.5" y="174.2" class="st1" width="9.7" height="9.7"/>
	<rect x="164.5" y="183.9" class="st1" width="9.7" height="9.7"/>
	<rect x="164.5" y="193.6" class="st1" width="9.7" height="9.7"/>
	<rect x="164.5" y="203.2" class="st1" width="9.7" height="9.7"/>
	<rect x="164.5" y="212.9" class="st1" width="9.7" height="9.7"/>
	<rect x="164.5" y="222.6" class="st1" width="9.7" height="9.7"/>
	<rect x="164.5" y="241.9" class="st1" width="9.7" height="9.7"/>
	<rect x="164.5" y="251.6" class="st1" width="9.7" height="9.7"/>
	<rect x="174.2" y="67.7" class="st1" width="9.7" height="9.7"/>
	<rect x="174.2" y="96.8" class="st1" width="9.7" height="9.7"/>
	<rect x="174.2" y="106.4" class="st1" width="9.7" height="9.7"/>
	<rect x="174.2" y="135.5" class="st1" width="9.7" height="9.7"/>
	<rect x="174.2" y="145.2" class="st1" width="9.7" height="9.7"/>
	<rect x="174.2" y="154.8" class="st1" width="9.7" height="9.7"/>
	<rect x="174.2" y="174.2" class="st1" width="9.7" height="9.7"/>
	<rect x="174.2" y="193.6" class="st1" width="9.7" height="9.7"/>
	<rect x="174.2" y="212.9" class="st1" width="9.7" height="9.7"/>
	<rect x="174.2" y="232.3" class="st1" width="9.7" height="9.7"/>
	<rect x="183.9" y="29" class="st1" width="9.7" height="9.7"/>
	<rect x="183.9" y="38.7" class="st1" width="9.7" height="9.7"/>
	<rect x="183.9" y="48.4" class="st1" width="9.7" height="9.7"/>
	<rect x="183.9" y="67.7" class="st1" width="9.7" height="9.7"/>
	<rect x="183.9" y="77.4" class="st1" width="9.7" height="9.7"/>
	<rect x="183.9" y="87.1" class="st1" width="9.7" height="9.7"/>
	<rect x="183.9" y="96.8" class="st1" width="9.7" height="9.7"/>
	<rect x="183.9" y="106.4" class="st1" width="9.7" height="9.7"/>
	<rect x="183.9" y="135.5" class="st1" width="9.7" height="9.7"/>
	<rect x="183.9" y="154.8" class="st1" width="9.7" height="9.7"/>
	<rect x="183.9" y="174.2" class="st1" width="9.7" height="9.7"/>
	<rect x="183.9" y="183.9" class="st1" width="9.7" height="9.7"/>
	<rect x="183.9" y="193.6" class="st1" width="9.7" height="9.7"/>
	<rect x="183.9" y="203.2" class="st1" width="9.7" height="9.7"/>
	<rect x="183.9" y="212.9" class="st1" width="9.7" height="9.7"/>
	<rect x="183.9" y="222.6" class="st1" width="9.7" height="9.7"/>
	<rect x="183.9" y="241.9" class="st1" width="9.7" height="9.7"/>
	<rect x="193.6" y="106.4" class="st1" width="9.7" height="9.7"/>
	<rect x="193.6" y="135.5" class="st1" width="9.7" height="9.7"/>
	<rect x="193.6" y="145.2" class="st1" width="9.7" height="9.7"/>
	<rect x="193.6" y="154.8" class="st1" width="9.7" height="9.7"/>
	<rect x="193.6" y="174.2" class="st1" width="9.7" height="9.7"/>
	<rect x="193.6" y="183.9" class="st1" width="9.7" height="9.7"/>
	<rect x="193.6" y="222.6" class="st1" width="9.7" height="9.7"/>
	<rect x="193.6" y="232.3" class="st1" width="9.7" height="9.7"/>
	<rect x="193.6" y="251.6" class="st1" width="9.7" height="9.7"/>
	<rect x="203.2" y="29" class="st1" width="9.7" height="9.7"/>
	<rect x="203.2" y="38.7" class="st1" width="9.7" height="9.7"/>
	<rect x="203.2" y="48.4" class="st1" width="9.7" height="9.7"/>
	<rect x="203.2" y="58.1" class="st1" width="9.7" height="9.7"/>
	<rect x="203.2" y="67.7" class="st1" width="9.7" height="9.7"/>
	<rect x="203.2" y="77.4" class="st1" width="9.7" height="9.7"/>
	<rect x="203.2" y="87.1" class="st1" width="9.7" height="9.7"/>
	<rect x="203.2" y="135.5" class="st1" width="9.7" height="9.7"/>
	<rect x="203.2" y="145.2" class="st1" width="9.7" height="9.7"/>
	<rect x="203.2" y="154.8" class="st1" width="9.7" height="9.7"/>
	<rect x="203.2" y="164.5" class="st1" width="9.7" height="9.7"/>
	<rect x="203.2" y="174.2" class="st1" width="9.7" height="9.7"/>
	<rect x="203.2" y="183.9" class="st1" width="9.7" height="9.7"/>
	<rect x="203.2" y="203.2" class="st1" width="9.7" height="9.7"/>
	<rect x="203.2" y="222.6" class="st1" width="9.7" height="9.7"/>
	<rect x="203.2" y="232.3" class="st1" width="9.7" height="9.7"/>
	<rect x="203.2" y="241.9" class="st1" width="9.7" height="9.7"/>
	<rect x="203.2" y="261.3" class="st1" width="9.7" height="9.7"/>
	<rect x="212.9" y="29" class="st1" width="9.7" height="9.7"/>
	<rect x="212.9" y="87.1" class="st1" width="9.7" height="9.7"/>
	<rect x="212.9" y="116.1" class="st1" width="9.7" height="9.7"/>
	<rect x="212.9" y="174.2" class="st1" width="9.7" height="9.7"/>
	<rect x="212.9" y="183.9" class="st1" width="9.7" height="9.7"/>
	<rect x="212.9" y="222.6" class="st1" width="9.7" height="9.7"/>
	<rect x="212.9" y="241.9" class="st1" width="9.7" height="9.7"/>
	<rect x="212.9" y="251.6" class="st1" width="9.7" height="9.7"/>
	<rect x="212.9" y="261.3" class="st1" width="9.7" height="9.7"/>
	<rect x="222.6" y="29" class="st1" width="9.7" height="9.7"/>
	<rect x="222.6" y="48.4" class="st1" width="9.7" height="9.7"/>
	<rect x="222.6" y="58.1" class="st1" width="9.7" height="9.7"/>
	<rect x="222.6" y="67.7" class="st1" width="9.7" height="9.7"/>
	<rect x="222.6" y="87.1" class="st1" width="9.7" height="9.7"/>
	<rect x="222.6" y="106.4" class="st1" width="9.7" height="9.7"/>
	<rect x="222.6" y="135.5" class="st1" width="9.7" height="9.7"/>
	<rect x="222.6" y="145.2" class="st1" width="9.7" height="9.7"/>
	<rect x="222.6" y="154.8" class="st1" width="9.7" height="9.7"/>
	<rect x="222.6" y="164.5" class="st1" width="9.7" height="9.7"/>
	<rect x="222.6" y="174.2" class="st1" width="9.7" height="9.7"/>
	<rect x="222.6" y="183.9" class="st1" width="9.7" height="9.7"/>
	<rect x="222.6" y="193.6" class="st1" width="9.7" height="9.7"/>
	<rect x="222.6" y="203.2" class="st1" width="9.7" height="9.7"/>
	<rect x="222.6" y="212.9" class="st1" width="9.7" height="9.7"/>
	<rect x="222.6" y="222.6" class="st1" width="9.7" height="9.7"/>
	<rect x="222.6" y="232.3" class="st1" width="9.7" height="9.7"/>
	<rect x="222.6" y="241.9" class="st1" width="9.7" height="9.7"/>
	<rect x="232.3" y="29" class="st1" width="9.7" height="9.7"/>
	<rect x="232.3" y="48.4" class="st1" width="9.7" height="9.7"/>
	<rect x="232.3" y="58.1" class="st1" width="9.7" height="9.7"/>
	<rect x="232.3" y="67.7" class="st1" width="9.7" height="9.7"/>
	<rect x="232.3" y="87.1" class="st1" width="9.7" height="9.7"/>
	<rect x="232.3" y="106.4" class="st1" width="9.7" height="9.7"/>
	<rect x="232.3" y="116.1" class="st1" width="9.7" height="9.7"/>
	<rect x="232.3" y="135.5" class="st1" width="9.7" height="9.7"/>
	<rect x="232.3" y="145.2" class="st1" width="9.7" height="9.7"/>
	<rect x="232.3" y="164.5" class="st1" width="9.7" height="9.7"/>
	<rect x="232.3" y="193.6" class="st1" width="9.7" height="9.7"/>
	<rect x="232.3" y="212.9" class="st1" width="9.7" height="9.7"/>
	<rect x="232.3" y="222.6" class="st1" width="9.7" height="9.7"/>
	<rect x="232.3" y="232.3" class="st1" width="9.7" height="9.7"/>
	<rect x="232.3" y="251.6" class="st1" width="9.7" height="9.7"/>
	<rect x="232.3" y="261.3" class="st1" width="9.7" height="9.7"/>
	<rect x="241.9" y="29" class="st1" width="9.7" height="9.7"/>
	<rect x="241.9" y="48.4" class="st1" width="9.7" height="9.7"/>
	<rect x="241.9" y="58.1" class="st1" width="9.7" height="9.7"/>
	<rect x="241.9" y="67.7" class="st1" width="9.7" height="9.7"/>
	<rect x="241.9" y="87.1" class="st1" width="9.7" height="9.7"/>
	<rect x="241.9" y="106.4" class="st1" width="9.7" height="9.7"/>
	<rect x="241.9" y="116.1" class="st1" width="9.7" height="9.7"/>
	<rect x="241.9" y="125.8" class="st1" width="9.7" height="9.7"/>
	<rect x="241.9" y="135.5" class="st1" width="9.7" height="9.7"/>
	<rect x="241.9" y="145.2" class="st1" width="9.7" height="9.7"/>
	<rect x="241.9" y="154.8" class="st1" width="9.7" height="9.7"/>
	<rect x="241.9" y="164.5" class="st1" width="9.7" height="9.7"/>
	<rect x="241.9" y="183.9" class="st1" width="9.7" height="9.7"/>
	<rect x="241.9" y="203.2" class="st1" width="9.7" height="9.7"/>
	<rect x="241.9" y="241.9" class="st1" width="9.7" height="9.7"/>
	<rect x="241.9" y="251.6" class="st1" width="9.7" height="9.7"/>
	<rect x="241.9" y="261.3" class="st1" width="9.7" height="9.7"/>
	<rect x="251.6" y="29" class="st1" width="9.7" height="9.7"/>
	<rect x="251.6" y="87.1" class="st1" width="9.7" height="9.7"/>
	<rect x="251.6" y="116.1" class="st1" width="9.7" height="9.7"/>
	<rect x="251.6" y="135.5" class="st1" width="9.7" height="9.7"/>
	<rect x="251.6" y="145.2" class="st1" width="9.7" height="9.7"/>
	<rect x="251.6" y="164.5" class="st1" width="9.7" height="9.7"/>
	<rect x="251.6" y="174.2" class="st1" width="9.7" height="9.7"/>
	<rect x="251.6" y="203.2" class="st1" width="9.7" height="9.7"/>
	<rect x="251.6" y="232.3" class="st1" width="9.7" height="9.7"/>
	<rect x="251.6" y="241.9" class="st1" width="9.7" height="9.7"/>
	<rect x="251.6" y="261.3" class="st1" width="9.7" height="9.7"/>
	<rect x="261.3" y="29" class="st1" width="9.7" height="9.7"/>
	<rect x="261.3" y="38.7" class="st1" width="9.7" height="9.7"/>
	<rect x="261.3" y="48.4" class="st1" width="9.7" height="9.7"/>
	<rect x="261.3" y="58.1" class="st1" width="9.7" height="9.7"/>
	<rect x="261.3" y="67.7" class="st1" width="9.7" height="9.7"/>
	<rect x="261.3" y="77.4" class="st1" width="9.7" height="9.7"/>
	<rect x="261.3" y="87.1" class="st1" width="9.7" height="9.7"/>
	<rect x="261.3" y="106.4" class="st1" width="9.7" height="9.7"/>
	<rect x="261.3" y="145.2" class="st1" width="9.7" height="9.7"/>
	<rect x="261.3" y="154.8" class="st1" width="9.7" height="9.7"/>
	<rect x="261.3" y="193.6" class="st1" width="9.7" height="9.7"/>
	<rect x="261.3" y="203.2" class="st1" width="9.7" height="9.7"/>
	<rect x="261.3" y="212.9" class="st1" width="9.7" height="9.7"/>
	<rect x="261.3" y="232.3" class="st1" width="9.7" height="9.7"/>
	<rect x="261.3" y="261.3" class="st1" width="9.7" height="9.7"/>
</g>
</svg>
